<?xml version="1.0" encoding="iso-8859-1"?>
<!-- Generator: Adobe Illustrator 19.0.0, SVG Export Plug-In . SVG Version: 6.00 Build 0)  -->
<svg version="1.1" id="Capa_1" xmlns="http://www.w3.org/2000/svg" xmlns:xlink="http://www.w3.org/1999/xlink" x="0px" y="0px"
	 viewBox="0 0 368 368" style="enable-background:new 0 0 368 368;" xml:space="preserve">
<path style="fill:#CCE4FF;" d="M296,56v272c0,17.68-14.32,32-32,32c-42.56,0-117.44,0-160,0c-17.68,0-32-14.32-32-32
	c0-62.08,0-198.96,0-272H296z M192,304c0-4.4-3.6-8-8-8s-8,3.6-8,8s3.6,8,8,8S192,308.4,192,304z"/>
<g>
	<path style="fill:#007AFF;" d="M184,288c-8.824,0-16,7.176-16,16s7.176,16,16,16s16-7.176,16-16S192.824,288,184,288z
		 M184.008,304.024C184,304.016,184,304.008,184,304h8L184.008,304.024z"/>
	<path style="fill:#007AFF;" d="M114.344,189.656c1.56,1.56,3.608,2.344,5.656,2.344s4.096-0.784,5.656-2.344l32-32
		c3.128-3.128,3.128-8.184,0-11.312l-32-32c-3.128-3.128-8.184-3.128-11.312,0s-3.128,8.184,0,11.312L140.688,152l-26.344,26.344
		C111.216,181.472,111.216,186.528,114.344,189.656z"/>
	<path style="fill:#007AFF;" d="M184,192h64c4.416,0,8-3.584,8-8s-3.584-8-8-8h-64c-4.416,0-8,3.584-8,8
		C176,188.416,179.584,192,184,192z"/>
	<path style="fill:#007AFF;" d="M200,144h48c4.416,0,8-3.584,8-8s-3.584-8-8-8h-48c-4.416,0-8,3.584-8,8S195.584,144,200,144z"/>
	<path style="fill:#007AFF;" d="M120,240h128c4.416,0,8-3.584,8-8s-3.584-8-8-8H120c-4.416,0-8,3.584-8,8S115.584,240,120,240z"/>
	<path style="fill:#007AFF;" d="M104,368h160c22.056,0,40-17.944,40-40V40c0-22.056-17.944-40-40-40H104C81.944,0,64,17.944,64,40
		v288C64,350.056,81.944,368,104,368z M80,40c0-13.232,10.768-24,24-24h160c13.232,0,24,10.768,24,24v8H80V40z M80,64h208v264
		c0,13.232-10.768,24-24,24H104c-13.232,0-24-10.768-24-24V64z"/>
</g>
<g>
</g>
<g>
</g>
<g>
</g>
<g>
</g>
<g>
</g>
<g>
</g>
<g>
</g>
<g>
</g>
<g>
</g>
<g>
</g>
<g>
</g>
<g>
</g>
<g>
</g>
<g>
</g>
<g>
</g>
</svg>
