<svg height="512" viewBox="0 0 64 64" width="512" xmlns="http://www.w3.org/2000/svg"><g id="router-access_point-wifi-computer-laptop" data-name="router-access point-wifi-computer-laptop"><path d="m55 39h-46l-5.31 19.47a2 2 0 0 0 1.93 2.53h52.76a2 2 0 0 0 1.93-2.53zm-32 18 1-4h16l1 4z" fill="#bddbff"/><circle cx="32" cy="16" fill="#bddbff" r="1"/><path d="m49 23v8h-2v4h-4v-4h-22v4h-4v-4h-2v-8h2v-18a2.006 2.006 0 0 1 2-2 2.015 2.015 0 0 1 2 2v18h22v-18a2.006 2.006 0 0 1 2-2 2.015 2.015 0 0 1 2 2v18z" fill="#bddbff"/><g fill="#57a4ff"><path d="m61.28 58.21-5.28-19.34v-27.87a3.009 3.009 0 0 0 -3-3h-5v-3a3 3 0 0 0 -6 0v17h-20v-17a3 3 0 0 0 -6 0v3h-5a3.009 3.009 0 0 0 -3 3v27.87l-5.28 19.34a3 3 0 0 0 2.9 3.79h52.76a3 3 0 0 0 2.9-3.79zm-17.28-53.21a1 1 0 0 1 2 0v17h-2zm-26 0a1 1 0 0 1 2 0v17h-2zm30 19v6h-32v-6zm-2 8v2h-2v-2zm-26 0v2h-2v-2zm-10-21a1 1 0 0 1 1-1h5v12h-1a1 1 0 0 0 -1 1v8a1 1 0 0 0 1 1h1v3a1 1 0 0 0 1 1h4a1 1 0 0 0 1-1v-3h20v3a1 1 0 0 0 1 1h4a1 1 0 0 0 1-1v-3h1a1 1 0 0 0 1-1v-8a1 1 0 0 0 -1-1h-1v-12h5a1 1 0 0 1 1 1v27h-44zm49.18 48.61a.99.99 0 0 1 -.8.39h-52.76a.99.99 0 0 1 -.8-.39 1 1 0 0 1 -.17-.87l5.11-18.74h44.48l5.11 18.74a1 1 0 0 1 -.17.87z"/><path d="m40.97 52.758a1 1 0 0 0 -.97-.758h-16a1 1 0 0 0 -.97.758l-1 4a1 1 0 0 0 .97 1.242h18a1 1 0 0 0 .97-1.242zm-16.689 3.242.5-2h14.438l.5 2z"/><path d="m27 34h10v2h-10z"/><path d="m12 42h4v2h-4z"/><path d="m18 42h4v2h-4z"/><path d="m24 42h4v2h-4z"/><path d="m36 42h4v2h-4z"/><path d="m42 42h4v2h-4z"/><path d="m48 42h4v2h-4z"/><path d="m30 42h4v2h-4z"/><path d="m12 46h4v2h-4z"/><path d="m18 46h4v2h-4z"/><path d="m24 46h4v2h-4z"/><path d="m36 46h4v2h-4z"/><path d="m42 46h4v2h-4z"/><path d="m48 46h4v2h-4z"/><path d="m30 46h4v2h-4z"/><path d="m38.357 8.643a8.966 8.966 0 0 0 -12.714 0l1.414 1.414a6.968 6.968 0 0 1 9.886 0z"/><path d="m35.532 11.458a5.007 5.007 0 0 0 -7.064 0l1.4 1.424a3.082 3.082 0 0 1 4.256 0z"/><path d="m32 4a10.891 10.891 0 0 1 7.771 3.225l1.417-1.411a12.974 12.974 0 0 0 -18.376 0l1.417 1.411a10.891 10.891 0 0 1 7.771-3.225z"/><circle cx="32" cy="16" r="2"/></g></g></svg>